<?xml version="1.0" encoding="UTF-8"?>
<svg width="216px" height="150px" viewBox="0 0 216 150" version="1.1" xmlns="http://www.w3.org/2000/svg" xmlns:xlink="http://www.w3.org/1999/xlink">
    <!-- Generator: Sketch 50.2 (55047) - http://www.bohemiancoding.com/sketch -->
    <title>logo</title>
    <desc>Created with Sketch.</desc>
    <defs></defs>
    <g id="Page-1" stroke="none" stroke-width="1" fill="none" fill-rule="evenodd">
        <g id="Artboard" transform="translate(-42.000000, -75.000000)" fill="#FFFFFF" fill-rule="nonzero">
            <g id="logo" transform="translate(42.000000, 75.000000)">
                <polygon id="Shape" points="158.200546 111.171584 135 149.343167 158.200546 149.343167 181.393294 111.171584 158.200546 73 135 73 158.200546 111.171584"></polygon>
                <polygon id="Shape" points="101 73 124.192749 111.171584 101 149.343167 124.192749 149.343167 147.393294 111.171584 124.192749 73 101 73"></polygon>
                <polygon id="Shape" points="215.389396 111.171584 192.196647 73 169 73 192.196647 111.171584 169 149.343167 192.196647 149.343167 215.389396 111.171584"></polygon>
                <path d="M93.8119197,144.154045 L114.275651,110.4839 L93.8119197,76.8098976 L85.7925074,63.5910196 L149.49167,63.5910196 C144.224667,27.6335111 112.969621,0 75.1532384,0 C33.6487836,0 0,33.2805603 0,74.337385 C0,115.39421 33.6487836,148.667055 75.1532384,148.667055 C80.9198883,148.663253 86.6668029,148.000555 92.2797714,146.692131 L93.8119197,144.169474 L93.8119197,144.154045 Z M78.5762059,87.5254049 C76.8136219,88.4433932 74.7532422,88.6260433 72.8537937,88.0326895 C70.9543452,87.4393358 69.3735097,86.1192351 68.4632474,84.3662974 L51.5394414,48.7135136 C50.4640608,46.6338731 51.2317839,44.085194 53.2823819,42.9273178 C55.33298,41.7694416 57.9413452,42.4118026 59.2040815,44.3856522 L81.8159393,77.3692024 C83.733679,81.0607968 82.2883266,85.5918151 78.5762059,87.5254049 Z" id="Shape"></path>
            </g>
        </g>
    </g>
</svg>